<?xml version="1.0" standalone="no"?>
<!DOCTYPE svg PUBLIC "-//W3C//DTD SVG 20010904//EN"
 "http://www.w3.org/TR/2001/REC-SVG-20010904/DTD/svg10.dtd">
<svg version="1.0" xmlns="http://www.w3.org/2000/svg"
 width="450.000000pt" height="450.000000pt" viewBox="0 0 450.000000 450.000000"
 preserveAspectRatio="xMidYMid meet">
<metadata>
Created by potrace 1.14, written by Peter Selinger 2001-2017
</metadata>
<g transform="translate(0.000000,450.000000) scale(0.100000,-0.100000)"
fill="#000000" stroke="none">
<path d="M2230 4245 c-19 -41 -38 -75 -41 -75 -3 0 -11 -16 -19 -35 -8 -19
-17 -35 -22 -35 -4 0 -8 -4 -8 -10 0 -10 -109 -211 -119 -220 -3 -3 -15 -23
-27 -45 -43 -84 -69 -130 -79 -137 -5 -4 -6 -8 -1 -8 5 0 3 -8 -6 -17 -8 -10
-20 -29 -26 -43 -7 -14 -26 -47 -42 -75 -16 -27 -33 -56 -36 -64 -4 -8 -41
-73 -82 -145 -41 -72 -86 -151 -100 -176 -14 -25 -40 -72 -59 -105 -19 -33
-40 -72 -46 -87 -6 -16 -15 -28 -19 -28 -4 0 -8 -7 -8 -15 0 -8 -4 -15 -10
-15 -5 0 -10 -5 -10 -11 0 -7 -27 -59 -60 -116 -33 -58 -60 -108 -60 -111 0
-3 -13 -26 -28 -51 -45 -72 -80 -135 -80 -145 0 -5 -5 -12 -12 -16 -6 -4 -12
-14 -14 -22 -1 -9 -7 -22 -13 -29 -9 -12 -32 -51 -77 -134 -6 -11 -15 -23 -21
-27 -5 -4 -6 -8 -2 -8 5 0 -2 -14 -15 -32 -12 -18 -23 -38 -24 -45 -1 -7 -12
-24 -23 -39 -12 -15 -21 -32 -21 -39 0 -7 -7 -18 -15 -25 -8 -7 -12 -16 -9
-21 3 -5 0 -9 -5 -9 -6 0 -11 -7 -11 -15 0 -8 -5 -15 -10 -15 -6 0 -9 -3 -8
-7 2 -8 -31 -75 -41 -83 -3 -3 -17 -25 -30 -50 -13 -25 -35 -66 -49 -92 -14
-27 -29 -48 -33 -48 -5 0 -8 -3 -7 -7 1 -5 -3 -18 -10 -30 -7 -13 -9 -23 -5
-23 4 0 0 -5 -9 -11 -10 -5 -18 -17 -18 -24 0 -8 -5 -15 -11 -15 -5 0 -8 -4
-5 -9 3 -5 -1 -14 -9 -21 -8 -7 -12 -16 -9 -21 3 -5 1 -9 -4 -9 -5 0 -12 -8
-15 -18 -6 -17 -31 -63 -116 -207 -26 -44 -50 -87 -54 -95 -4 -8 -18 -33 -32
-55 -14 -22 -32 -52 -40 -67 l-16 -28 996 0 995 0 2 583 3 582 320 0 c214 0
323 -3 330 -10 9 -10 23 -32 49 -80 6 -11 13 -22 16 -25 3 -3 16 -25 29 -50
52 -100 66 -125 71 -130 3 -3 17 -27 30 -55 14 -27 28 -51 33 -53 4 -2 7 -10
7 -18 0 -8 3 -14 8 -14 9 0 32 -49 32 -69 0 -8 3 -11 6 -8 4 4 19 -18 34 -48
15 -30 33 -61 40 -70 7 -8 9 -15 6 -15 -4 0 -1 -7 6 -15 29 -32 37 -43 33 -47
-3 -2 13 -33 35 -68 25 -40 36 -68 30 -75 -8 -10 -124 -10 -638 -2 -83 1 -153
-1 -153 -5 -1 -5 -2 -16 -2 -25 -1 -10 -6 -21 -12 -25 -6 -5 -6 -8 0 -8 11 0
12 -196 2 -207 -4 -3 -2 -14 4 -24 9 -18 36 -19 679 -19 l670 0 -22 38 c-11
20 -32 57 -46 82 -13 25 -40 70 -58 101 -19 31 -34 62 -34 68 0 6 -4 11 -10
11 -5 0 -10 6 -10 13 0 7 -6 19 -12 26 -7 6 -14 15 -14 19 -5 26 -18 52 -25
52 -5 0 -9 7 -9 15 0 8 -4 15 -8 15 -5 0 -14 16 -22 35 -8 19 -16 35 -20 35
-3 0 -12 16 -19 35 -7 19 -17 35 -22 35 -6 0 -8 4 -4 10 3 5 -3 18 -15 30 -11
11 -20 26 -20 33 0 7 -4 17 -9 23 -5 5 -26 41 -47 79 -20 39 -40 72 -43 75 -3
3 -13 19 -21 35 -8 17 -17 32 -20 35 -9 9 -34 65 -32 73 1 4 -2 7 -8 7 -5 0
-10 7 -10 15 0 8 -4 15 -10 15 -5 0 -10 6 -10 13 0 6 -9 23 -20 37 -11 14 -20
33 -20 42 0 9 -4 18 -8 20 -5 2 -28 39 -52 83 -24 44 -46 82 -49 85 -4 3 -17
29 -30 58 -14 28 -28 52 -33 52 -4 0 -8 6 -8 14 0 8 -7 22 -16 30 -8 9 -12 16
-7 16 4 0 4 4 -2 8 -10 7 -30 41 -77 132 -13 25 -25 47 -28 50 -3 3 -12 19
-20 35 -8 17 -17 32 -20 35 -3 3 -17 28 -31 55 -15 28 -43 79 -63 113 -20 35
-36 68 -36 73 0 5 -4 9 -8 9 -7 0 -34 59 -31 69 0 2 -4 7 -9 10 -11 7 -132
220 -132 232 0 4 -3 9 -7 11 -5 2 -19 26 -33 53 -14 28 -27 52 -31 55 -3 3
-21 34 -40 70 -19 36 -37 67 -41 68 -5 2 -8 8 -8 13 0 5 -19 42 -41 82 -23 40
-53 92 -67 117 -14 25 -72 128 -129 230 -57 102 -112 201 -123 220 -10 19 -25
36 -32 37 -7 1 -28 -30 -48 -72z m80 -607 c21 -41 209 -374 264 -468 15 -25
34 -61 44 -80 9 -19 20 -37 24 -40 3 -3 8 -12 10 -20 2 -8 11 -23 21 -34 9
-11 17 -26 17 -33 0 -7 5 -13 12 -13 6 0 9 -3 5 -6 -3 -3 5 -24 19 -45 13 -21
24 -43 24 -49 0 -5 5 -10 10 -10 6 0 10 -9 10 -21 0 -11 5 -17 10 -14 6 3 11
1 11 -4 1 -6 2 -14 3 -18 1 -8 52 -99 90 -163 11 -19 21 -40 22 -47 2 -9 -139
-12 -614 -12 -340 -1 -622 3 -629 7 -8 5 2 30 32 82 24 41 54 95 67 120 13 25
26 47 31 48 4 2 7 10 7 18 0 8 5 14 11 14 5 0 8 4 5 9 -3 5 0 14 8 20 7 6 21
30 32 53 10 24 21 45 24 48 3 3 14 23 25 45 11 22 22 42 25 45 7 7 48 80 68
120 9 19 19 37 23 40 3 3 32 52 64 110 32 58 69 123 81 145 13 22 32 56 42 75
53 98 66 120 73 120 4 0 17 -19 29 -42z m-195 -1818 l0 -425 -95 -2 c-311 -5
-1009 -5 -1019 1 -8 5 -3 22 16 54 15 26 30 49 33 52 3 3 6 12 8 20 2 8 8 17
13 18 5 2 9 10 9 18 0 8 5 14 10 14 6 0 9 3 9 8 -3 12 25 72 33 72 5 0 15 18
24 40 9 22 20 40 25 40 5 0 9 7 9 16 0 9 9 29 21 45 11 16 18 29 14 29 -3 0 3
10 15 22 18 20 21 27 19 44 0 4 3 10 9 13 5 3 15 18 23 33 45 86 114 204 121
209 6 3 9 8 7 10 -4 8 41 87 52 91 6 2 154 4 328 3 l316 0 0 -425z"/>
</g>
</svg>
